<svg xmlns="http://www.w3.org/2000/svg" viewBox="0 0 600 400" preserveAspectRatio="xMidYMid slice">
  <defs>
    <linearGradient id="bg" x1="0" y1="0" x2="1" y2="1">
      <stop offset="0" stop-color="#2e2b1d"/>
      <stop offset="1" stop-color="#11140f"/>
    </linearGradient>
    <radialGradient id="plate" cx="52%" cy="43%" r="58%">
      <stop offset="0" stop-color="#f6f6f1"/>
      <stop offset="1" stop-color="#cecfca"/>
    </radialGradient>
    <filter id="grain" x="-20%" y="-20%" width="140%" height="140%">
      <feTurbulence type="fractalNoise" baseFrequency="0.75" numOctaves="2" seed="9"/>
      <feColorMatrix type="saturate" values="0"/>
      <feComponentTransfer><feFuncA type="table" tableValues="0 0.055"/></feComponentTransfer>
    </filter>
  </defs>
  <rect width="600" height="400" fill="url(#bg)"/>
  <ellipse cx="300" cy="205" rx="225" ry="146" fill="url(#plate)"/>
  <ellipse cx="280" cy="185" rx="108" ry="48" fill="#d7a45f"/>
  <ellipse cx="375" cy="225" rx="110" ry="47" fill="#d29b56"/>
  <ellipse cx="280" cy="185" rx="88" ry="26" fill="#b86f36"/>
  <ellipse cx="375" cy="225" rx="90" ry="26" fill="#a55d2b"/>
  <g fill="#8bc55a" opacity="0.92">
    <circle cx="238" cy="230" r="11"/><circle cx="288" cy="238" r="8"/><circle cx="338" cy="165" r="9"/>
    <circle cx="365" cy="255" r="7"/><circle cx="405" cy="185" r="8"/>
  </g>
  <g fill="#dcead0" opacity="0.55">
    <circle cx="260" cy="170" r="5"/><circle cx="325" cy="210" r="4"/><circle cx="390" cy="240" r="4"/>
  </g>
  <rect width="600" height="400" filter="url(#grain)"/>
  <text x="28" y="370" fill="#f3ecd7" font-family="Segoe UI, Arial, sans-serif" font-size="30" font-weight="700" letter-spacing="1.8">GRILLED CHICKEN TACO</text>
</svg>
